# xmcd
#
# Track frame offsets:
#	150
#	2249
#	18287
#	37033
#	51366
#	65390
#	77383
#	91994
#	106184
#	119703
#	132435
#	143051
#
# Disc length: 2050 seconds
#
# Revision: 0
# Processed by: cddbd v1.5.2PL0 Copyright (c) Steve Scherf et al.
# Submitted via: dBpowerAMP V4.0
#
DISCID=9c08000c
DTITLE=NotRed Jenkins - Neon Bible - The Texas Honky Tonk Testament
DYEAR=2006
DGENRE=Country
TTITLE0=Intro
TTITLE1=Neon Bible
TTITLE2=A Violin That Never Has Been Played
TTITLE3=Swinging Doors
TTITLE4=The Beginning Of Goodbye
TTITLE5=Pick Me Up On Your Way Down
TTITLE6=Honky Tonkin`Round
TTITLE7=Heartaches By The Number
TTITLE8=From Champagne Too Beer
TTITLE9=My Side Of Life
TTITLE10=Across The Bridge
TTITLE11=She`s Not Hurting Me Tonight
EXTD=
EXTT0=
EXTT1=
EXTT2=
EXTT3=
EXTT4=
EXTT5=
EXTT6=
EXTT7=
EXTT8=
EXTT9=
EXTT10=
EXTT11=
PLAYORDER=
